<svg t="1730442518601" class="icon" viewBox="0 0 1039 1024" version="1.1" xmlns="http://www.w3.org/2000/svg" p-id="9840" width="200" height="200"><path d="M136.919021 973.86064c-21.212806 0-38.568738-17.355932-38.568739-38.568738v-233.340866c0-21.212806 17.355932-38.568738 38.568739-38.568738s38.568738 17.355932 38.568738 38.568738v233.340866c0 23.141243-17.355932 38.568738-38.568738 38.568738zM518.749529 973.86064c-21.212806 0-38.568738-17.355932-38.568738-38.568738v-339.404896c0-21.212806 17.355932-38.568738 38.568738-38.568739s38.568738 17.355932 38.568738 38.568739v339.404896c0 23.141243-17.355932 38.568738-38.568738 38.568738zM900.580038 973.86064c-21.212806 0-38.568738-17.355932-38.568739-38.568738v-530.320151c0-21.212806 17.355932-38.568738 38.568739-38.568738s38.568738 17.355932 38.568738 38.568738v530.320151c0 23.141243-17.355932 38.568738-38.568738 38.568738z" fill="#388CEB" p-id="9841"></path><path d="M115.706215 507.178908c-7.713748 0-15.427495-1.928437-23.141243-7.713748-17.355932-11.570621-21.212806-36.640301-9.642185-53.996233l160.060264-223.698682c9.642185-15.427495 28.926554-19.284369 46.282486-13.499059l304.693032 129.205274 279.623352-239.126178c15.427495-13.499058 40.497175-11.570621 53.996233 3.856874 13.499058 15.427495 11.570621 40.497175-3.856873 53.996234l-296.979285 254.553672c-11.570621 9.642185-26.998117 11.570621-40.497175 5.785311L289.265537 293.122411l-142.704332 198.629001c-7.713748 11.570621-19.284369 15.427495-30.85499 15.427496z" fill="#E78E00" p-id="9842"></path></svg>